<mxfile host="drawio-plugin" modified="2021-05-03T18:34:18.221Z" agent="5.0 (Windows NT 6.2; Win64; x64) AppleWebKit/537.36 (KHTML, like Gecko) Chrome/87.0.4280.141 Safari/537.36" version="13.7.9" etag="SFXUVDUOjdQOcXlBB7O3" type="embed" pages="2"><diagram id="UW7B0kfnwROVYS4IuOLc" name="Page-1"><mxGraphModel dx="1610" dy="669" grid="1" gridSize="10" guides="1" tooltips="1" connect="1" arrows="1" fold="1" page="1" pageScale="1" pageWidth="850" pageHeight="1100" math="0" shadow="1"><root><mxCell id="0"/><mxCell id="1" parent="0"/><mxCell id="2" value="" style="group;shadow=1;" vertex="1" connectable="0" parent="1"><mxGeometry x="33" y="253" width="785" height="595" as="geometry"/></mxCell><mxCell id="3" value="" style="rounded=0;whiteSpace=wrap;html=1;fillColor=#f5f5f5;strokeColor=#666666;fontColor=#333333;shadow=1;" vertex="1" parent="2"><mxGeometry width="785" height="595" as="geometry"/></mxCell><mxCell id="4" value="" style="rounded=0;whiteSpace=wrap;html=1;shadow=1;" vertex="1" parent="2"><mxGeometry width="785" height="27" as="geometry"/></mxCell><mxCell id="9" value="" style="group;shadow=1;" vertex="1" connectable="0" parent="2"><mxGeometry x="30" y="170" width="720" height="400" as="geometry"/></mxCell><mxCell id="10" value="&lt;font style=&quot;font-size: 24px&quot;&gt;&lt;b&gt;Scrollable Edit Area&lt;/b&gt;&lt;/font&gt;" style="rounded=0;whiteSpace=wrap;html=1;fillColor=#f5f5f5;strokeColor=#666666;fontColor=#333333;shadow=1;" vertex="1" parent="9"><mxGeometry width="720" height="400" as="geometry"/></mxCell><mxCell id="11" value="" style="endArrow=none;html=1;entryX=1;entryY=1;entryDx=0;entryDy=0;exitX=0;exitY=0;exitDx=0;exitDy=0;strokeColor=#030303;shadow=1;" edge="1" parent="9" source="10" target="10"><mxGeometry width="50" height="50" relative="1" as="geometry"><mxPoint x="102.85714285714288" y="-133.33333333333334" as="sourcePoint"/><mxPoint x="274.28571428571433" y="-300" as="targetPoint"/></mxGeometry></mxCell><mxCell id="12" value="" style="endArrow=none;html=1;entryX=0;entryY=1;entryDx=0;entryDy=0;exitX=1;exitY=0;exitDx=0;exitDy=0;strokeColor=#030303;shadow=1;" edge="1" parent="9" source="10" target="10"><mxGeometry width="50" height="50" relative="1" as="geometry"><mxPoint x="34.28571428571429" y="33.333333333333336" as="sourcePoint"/><mxPoint x="754.2857142857143" y="433.33333333333337" as="targetPoint"/></mxGeometry></mxCell><mxCell id="vAVt1UNHCRipZEtkp5-Y-12" value="" style="group;shadow=1;" vertex="1" connectable="0" parent="1"><mxGeometry x="245" y="300" width="360" height="70" as="geometry"/></mxCell><mxCell id="vAVt1UNHCRipZEtkp5-Y-13" value="&lt;font style=&quot;font-size: 24px&quot;&gt;&lt;b&gt;Title&lt;/b&gt;&lt;/font&gt;" style="rounded=0;whiteSpace=wrap;html=1;fillColor=#f5f5f5;strokeColor=#666666;fontColor=#333333;shadow=1;" vertex="1" parent="vAVt1UNHCRipZEtkp5-Y-12"><mxGeometry width="360" height="70" as="geometry"/></mxCell><mxCell id="vAVt1UNHCRipZEtkp5-Y-14" value="" style="endArrow=none;html=1;entryX=1;entryY=1;entryDx=0;entryDy=0;exitX=0;exitY=0;exitDx=0;exitDy=0;strokeColor=#030303;shadow=1;" edge="1" parent="vAVt1UNHCRipZEtkp5-Y-12" source="vAVt1UNHCRipZEtkp5-Y-13" target="vAVt1UNHCRipZEtkp5-Y-13"><mxGeometry width="50" height="50" relative="1" as="geometry"><mxPoint x="51.42857142857143" y="-23.333333333333332" as="sourcePoint"/><mxPoint x="137.14285714285717" y="-52.5" as="targetPoint"/></mxGeometry></mxCell><mxCell id="vAVt1UNHCRipZEtkp5-Y-15" value="" style="endArrow=none;html=1;entryX=0;entryY=1;entryDx=0;entryDy=0;exitX=1;exitY=0;exitDx=0;exitDy=0;strokeColor=#030303;shadow=1;" edge="1" parent="vAVt1UNHCRipZEtkp5-Y-12" source="vAVt1UNHCRipZEtkp5-Y-13" target="vAVt1UNHCRipZEtkp5-Y-13"><mxGeometry width="50" height="50" relative="1" as="geometry"><mxPoint x="17.142857142857146" y="5.833333333333333" as="sourcePoint"/><mxPoint x="377.14285714285717" y="75.83333333333333" as="targetPoint"/></mxGeometry></mxCell><mxCell id="vAVt1UNHCRipZEtkp5-Y-16" value="" style="group;shadow=1;" vertex="1" connectable="0" parent="1"><mxGeometry x="620" y="316.5" width="150" height="37" as="geometry"/></mxCell><mxCell id="vAVt1UNHCRipZEtkp5-Y-17" value="&lt;font style=&quot;font-size: 24px&quot;&gt;Save Button&lt;/font&gt;" style="rounded=0;whiteSpace=wrap;html=1;fillColor=#f5f5f5;strokeColor=#666666;fontColor=#333333;shadow=1;" vertex="1" parent="vAVt1UNHCRipZEtkp5-Y-16"><mxGeometry width="150" height="37" as="geometry"/></mxCell><mxCell id="vAVt1UNHCRipZEtkp5-Y-18" value="" style="endArrow=none;html=1;entryX=1;entryY=1;entryDx=0;entryDy=0;exitX=0;exitY=0;exitDx=0;exitDy=0;strokeColor=#030303;shadow=1;" edge="1" parent="vAVt1UNHCRipZEtkp5-Y-16" source="vAVt1UNHCRipZEtkp5-Y-17" target="vAVt1UNHCRipZEtkp5-Y-17"><mxGeometry width="50" height="50" relative="1" as="geometry"><mxPoint x="21.428571428571427" y="-12.333333333333332" as="sourcePoint"/><mxPoint x="57.14285714285714" y="-27.75" as="targetPoint"/></mxGeometry></mxCell><mxCell id="vAVt1UNHCRipZEtkp5-Y-19" value="" style="endArrow=none;html=1;entryX=0;entryY=1;entryDx=0;entryDy=0;exitX=1;exitY=0;exitDx=0;exitDy=0;strokeColor=#030303;shadow=1;" edge="1" parent="vAVt1UNHCRipZEtkp5-Y-16" source="vAVt1UNHCRipZEtkp5-Y-17" target="vAVt1UNHCRipZEtkp5-Y-17"><mxGeometry width="50" height="50" relative="1" as="geometry"><mxPoint x="7.142857142857142" y="3.083333333333333" as="sourcePoint"/><mxPoint x="157.14285714285714" y="40.08333333333333" as="targetPoint"/></mxGeometry></mxCell></root></mxGraphModel></diagram><diagram id="SUISH7Z_f09lPvSAS9-c" name="Page-2"><mxGraphModel dx="1610" dy="669" grid="1" gridSize="10" guides="1" tooltips="1" connect="1" arrows="1" fold="1" page="1" pageScale="1" pageWidth="850" pageHeight="1100" math="0" shadow="0"><root><mxCell id="NRxcUDmw_bzb4nclpFP--0"/><mxCell id="NRxcUDmw_bzb4nclpFP--1" parent="NRxcUDmw_bzb4nclpFP--0"/><mxCell id="NRxcUDmw_bzb4nclpFP--2" value="" style="group;sketch=0;shadow=1;" vertex="1" connectable="0" parent="NRxcUDmw_bzb4nclpFP--1"><mxGeometry x="33" y="253" width="785" height="595" as="geometry"/></mxCell><mxCell id="NRxcUDmw_bzb4nclpFP--3" value="" style="rounded=0;whiteSpace=wrap;html=1;fillColor=#f5f5f5;strokeColor=#666666;fontColor=#333333;sketch=0;shadow=1;" vertex="1" parent="NRxcUDmw_bzb4nclpFP--2"><mxGeometry width="785" height="595" as="geometry"/></mxCell><mxCell id="NRxcUDmw_bzb4nclpFP--4" value="" style="rounded=0;whiteSpace=wrap;html=1;sketch=0;shadow=1;" vertex="1" parent="NRxcUDmw_bzb4nclpFP--2"><mxGeometry width="785" height="27" as="geometry"/></mxCell><mxCell id="NRxcUDmw_bzb4nclpFP--5" value="" style="group;sketch=0;shadow=1;" vertex="1" connectable="0" parent="NRxcUDmw_bzb4nclpFP--2"><mxGeometry x="30" y="170" width="720" height="417" as="geometry"/></mxCell><mxCell id="NRxcUDmw_bzb4nclpFP--6" value="" style="rounded=0;whiteSpace=wrap;html=1;fillColor=#f5f5f5;strokeColor=#666666;fontColor=#333333;sketch=0;shadow=1;" vertex="1" parent="NRxcUDmw_bzb4nclpFP--5"><mxGeometry width="720" height="400" as="geometry"/></mxCell><mxCell id="eLZBrCOynpte3w48sHIp-0" value="" style="group;sketch=0;shadow=1;" vertex="1" connectable="0" parent="NRxcUDmw_bzb4nclpFP--5"><mxGeometry x="27" y="27" width="173" height="60" as="geometry"/></mxCell><mxCell id="eLZBrCOynpte3w48sHIp-1" value="&lt;font style=&quot;font-size: 24px&quot;&gt;Selection Menu&lt;/font&gt;" style="rounded=0;whiteSpace=wrap;html=1;fillColor=#f5f5f5;strokeColor=#666666;fontColor=#333333;sketch=0;shadow=1;" vertex="1" parent="eLZBrCOynpte3w48sHIp-0"><mxGeometry width="173" height="60" as="geometry"/></mxCell><mxCell id="eLZBrCOynpte3w48sHIp-2" value="" style="endArrow=none;html=1;entryX=1;entryY=1;entryDx=0;entryDy=0;exitX=0;exitY=0;exitDx=0;exitDy=0;strokeColor=#030303;sketch=0;shadow=1;" edge="1" parent="eLZBrCOynpte3w48sHIp-0" source="eLZBrCOynpte3w48sHIp-1" target="eLZBrCOynpte3w48sHIp-1"><mxGeometry width="50" height="50" relative="1" as="geometry"><mxPoint x="24.71428571428571" y="-19.999999999999996" as="sourcePoint"/><mxPoint x="65.9047619047619" y="-44.99999999999999" as="targetPoint"/></mxGeometry></mxCell><mxCell id="eLZBrCOynpte3w48sHIp-3" value="" style="endArrow=none;html=1;entryX=0;entryY=1;entryDx=0;entryDy=0;exitX=1;exitY=0;exitDx=0;exitDy=0;strokeColor=#030303;sketch=0;shadow=1;" edge="1" parent="eLZBrCOynpte3w48sHIp-0" source="eLZBrCOynpte3w48sHIp-1" target="eLZBrCOynpte3w48sHIp-1"><mxGeometry width="50" height="50" relative="1" as="geometry"><mxPoint x="8.238095238095237" y="4.999999999999999" as="sourcePoint"/><mxPoint x="181.23809523809524" y="64.99999999999999" as="targetPoint"/></mxGeometry></mxCell><mxCell id="eLZBrCOynpte3w48sHIp-4" value="Field Name" style="text;html=1;align=center;verticalAlign=middle;resizable=0;points=[];autosize=1;fontColor=#050505;fontSize=16;sketch=0;shadow=1;" vertex="1" parent="NRxcUDmw_bzb4nclpFP--5"><mxGeometry x="27" y="7" width="100" height="20" as="geometry"/></mxCell><mxCell id="eLZBrCOynpte3w48sHIp-5" value="" style="group;sketch=0;shadow=1;" vertex="1" connectable="0" parent="NRxcUDmw_bzb4nclpFP--5"><mxGeometry x="27" y="127" width="663" height="60" as="geometry"/></mxCell><mxCell id="eLZBrCOynpte3w48sHIp-6" value="&lt;font style=&quot;font-size: 24px&quot;&gt;Text Area&lt;/font&gt;" style="rounded=0;whiteSpace=wrap;html=1;fillColor=#f5f5f5;strokeColor=#666666;fontColor=#333333;sketch=0;shadow=1;" vertex="1" parent="eLZBrCOynpte3w48sHIp-5"><mxGeometry width="663" height="60" as="geometry"/></mxCell><mxCell id="eLZBrCOynpte3w48sHIp-7" value="" style="endArrow=none;html=1;entryX=1;entryY=1;entryDx=0;entryDy=0;exitX=0;exitY=0;exitDx=0;exitDy=0;strokeColor=#030303;sketch=0;shadow=1;" edge="1" parent="eLZBrCOynpte3w48sHIp-5" source="eLZBrCOynpte3w48sHIp-6" target="eLZBrCOynpte3w48sHIp-6"><mxGeometry width="50" height="50" relative="1" as="geometry"><mxPoint x="94.71428571428571" y="-19.999999999999996" as="sourcePoint"/><mxPoint x="252.57142857142856" y="-44.99999999999999" as="targetPoint"/></mxGeometry></mxCell><mxCell id="eLZBrCOynpte3w48sHIp-8" value="" style="endArrow=none;html=1;entryX=0;entryY=1;entryDx=0;entryDy=0;exitX=1;exitY=0;exitDx=0;exitDy=0;strokeColor=#030303;sketch=0;shadow=1;" edge="1" parent="eLZBrCOynpte3w48sHIp-5" source="eLZBrCOynpte3w48sHIp-6" target="eLZBrCOynpte3w48sHIp-6"><mxGeometry width="50" height="50" relative="1" as="geometry"><mxPoint x="31.57142857142857" y="4.999999999999999" as="sourcePoint"/><mxPoint x="694.5714285714286" y="64.99999999999999" as="targetPoint"/></mxGeometry></mxCell><mxCell id="eLZBrCOynpte3w48sHIp-9" value="Field Name" style="text;html=1;align=center;verticalAlign=middle;resizable=0;points=[];autosize=1;fontColor=#050505;fontSize=16;sketch=0;shadow=1;" vertex="1" parent="NRxcUDmw_bzb4nclpFP--5"><mxGeometry x="27" y="107" width="100" height="20" as="geometry"/></mxCell><mxCell id="eLZBrCOynpte3w48sHIp-10" value="" style="group;sketch=0;shadow=1;" vertex="1" connectable="0" parent="NRxcUDmw_bzb4nclpFP--5"><mxGeometry x="27" y="237" width="173" height="60" as="geometry"/></mxCell><mxCell id="eLZBrCOynpte3w48sHIp-11" value="&lt;font style=&quot;font-size: 24px&quot;&gt;Selection Menu&lt;/font&gt;" style="rounded=0;whiteSpace=wrap;html=1;fillColor=#f5f5f5;strokeColor=#666666;fontColor=#333333;sketch=0;shadow=1;" vertex="1" parent="eLZBrCOynpte3w48sHIp-10"><mxGeometry width="173" height="60" as="geometry"/></mxCell><mxCell id="eLZBrCOynpte3w48sHIp-12" value="" style="endArrow=none;html=1;entryX=1;entryY=1;entryDx=0;entryDy=0;exitX=0;exitY=0;exitDx=0;exitDy=0;strokeColor=#030303;sketch=0;shadow=1;" edge="1" parent="eLZBrCOynpte3w48sHIp-10" source="eLZBrCOynpte3w48sHIp-11" target="eLZBrCOynpte3w48sHIp-11"><mxGeometry width="50" height="50" relative="1" as="geometry"><mxPoint x="24.71428571428571" y="-19.999999999999996" as="sourcePoint"/><mxPoint x="65.9047619047619" y="-44.99999999999999" as="targetPoint"/></mxGeometry></mxCell><mxCell id="eLZBrCOynpte3w48sHIp-13" value="" style="endArrow=none;html=1;entryX=0;entryY=1;entryDx=0;entryDy=0;exitX=1;exitY=0;exitDx=0;exitDy=0;strokeColor=#030303;sketch=0;shadow=1;" edge="1" parent="eLZBrCOynpte3w48sHIp-10" source="eLZBrCOynpte3w48sHIp-11" target="eLZBrCOynpte3w48sHIp-11"><mxGeometry width="50" height="50" relative="1" as="geometry"><mxPoint x="8.238095238095237" y="4.999999999999999" as="sourcePoint"/><mxPoint x="181.23809523809524" y="64.99999999999999" as="targetPoint"/></mxGeometry></mxCell><mxCell id="eLZBrCOynpte3w48sHIp-14" value="Field Name" style="text;html=1;align=center;verticalAlign=middle;resizable=0;points=[];autosize=1;fontColor=#050505;fontSize=16;sketch=0;shadow=1;" vertex="1" parent="NRxcUDmw_bzb4nclpFP--5"><mxGeometry x="27" y="217" width="100" height="20" as="geometry"/></mxCell><mxCell id="eLZBrCOynpte3w48sHIp-15" value="" style="group;sketch=0;shadow=1;" vertex="1" connectable="0" parent="NRxcUDmw_bzb4nclpFP--5"><mxGeometry x="276" y="27" width="173" height="60" as="geometry"/></mxCell><mxCell id="eLZBrCOynpte3w48sHIp-16" value="&lt;font style=&quot;font-size: 24px&quot;&gt;Selection Menu&lt;/font&gt;" style="rounded=0;whiteSpace=wrap;html=1;fillColor=#f5f5f5;strokeColor=#666666;fontColor=#333333;sketch=0;shadow=1;" vertex="1" parent="eLZBrCOynpte3w48sHIp-15"><mxGeometry width="173" height="60" as="geometry"/></mxCell><mxCell id="eLZBrCOynpte3w48sHIp-17" value="" style="endArrow=none;html=1;entryX=1;entryY=1;entryDx=0;entryDy=0;exitX=0;exitY=0;exitDx=0;exitDy=0;strokeColor=#030303;sketch=0;shadow=1;" edge="1" parent="eLZBrCOynpte3w48sHIp-15" source="eLZBrCOynpte3w48sHIp-16" target="eLZBrCOynpte3w48sHIp-16"><mxGeometry width="50" height="50" relative="1" as="geometry"><mxPoint x="24.71428571428571" y="-19.999999999999996" as="sourcePoint"/><mxPoint x="65.9047619047619" y="-44.99999999999999" as="targetPoint"/></mxGeometry></mxCell><mxCell id="eLZBrCOynpte3w48sHIp-18" value="" style="endArrow=none;html=1;entryX=0;entryY=1;entryDx=0;entryDy=0;exitX=1;exitY=0;exitDx=0;exitDy=0;strokeColor=#030303;sketch=0;shadow=1;" edge="1" parent="eLZBrCOynpte3w48sHIp-15" source="eLZBrCOynpte3w48sHIp-16" target="eLZBrCOynpte3w48sHIp-16"><mxGeometry width="50" height="50" relative="1" as="geometry"><mxPoint x="8.238095238095237" y="4.999999999999999" as="sourcePoint"/><mxPoint x="181.23809523809524" y="64.99999999999999" as="targetPoint"/></mxGeometry></mxCell><mxCell id="eLZBrCOynpte3w48sHIp-19" value="Field Name" style="text;html=1;align=center;verticalAlign=middle;resizable=0;points=[];autosize=1;fontColor=#050505;fontSize=16;sketch=0;shadow=1;" vertex="1" parent="NRxcUDmw_bzb4nclpFP--5"><mxGeometry x="276" y="7" width="100" height="20" as="geometry"/></mxCell><mxCell id="eLZBrCOynpte3w48sHIp-20" value="" style="group;sketch=0;shadow=1;" vertex="1" connectable="0" parent="NRxcUDmw_bzb4nclpFP--5"><mxGeometry x="272" y="237" width="173" height="60" as="geometry"/></mxCell><mxCell id="eLZBrCOynpte3w48sHIp-21" value="&lt;font style=&quot;font-size: 24px&quot;&gt;Selection Menu&lt;/font&gt;" style="rounded=0;whiteSpace=wrap;html=1;fillColor=#f5f5f5;strokeColor=#666666;fontColor=#333333;sketch=0;shadow=1;" vertex="1" parent="eLZBrCOynpte3w48sHIp-20"><mxGeometry width="173" height="60" as="geometry"/></mxCell><mxCell id="eLZBrCOynpte3w48sHIp-22" value="" style="endArrow=none;html=1;entryX=1;entryY=1;entryDx=0;entryDy=0;exitX=0;exitY=0;exitDx=0;exitDy=0;strokeColor=#030303;sketch=0;shadow=1;" edge="1" parent="eLZBrCOynpte3w48sHIp-20" source="eLZBrCOynpte3w48sHIp-21" target="eLZBrCOynpte3w48sHIp-21"><mxGeometry width="50" height="50" relative="1" as="geometry"><mxPoint x="24.71428571428571" y="-19.999999999999996" as="sourcePoint"/><mxPoint x="65.9047619047619" y="-44.99999999999999" as="targetPoint"/></mxGeometry></mxCell><mxCell id="eLZBrCOynpte3w48sHIp-23" value="" style="endArrow=none;html=1;entryX=0;entryY=1;entryDx=0;entryDy=0;exitX=1;exitY=0;exitDx=0;exitDy=0;strokeColor=#030303;sketch=0;shadow=1;" edge="1" parent="eLZBrCOynpte3w48sHIp-20" source="eLZBrCOynpte3w48sHIp-21" target="eLZBrCOynpte3w48sHIp-21"><mxGeometry width="50" height="50" relative="1" as="geometry"><mxPoint x="8.238095238095237" y="4.999999999999999" as="sourcePoint"/><mxPoint x="181.23809523809524" y="64.99999999999999" as="targetPoint"/></mxGeometry></mxCell><mxCell id="eLZBrCOynpte3w48sHIp-24" value="Field Name" style="text;html=1;align=center;verticalAlign=middle;resizable=0;points=[];autosize=1;fontColor=#050505;fontSize=16;sketch=0;shadow=1;" vertex="1" parent="NRxcUDmw_bzb4nclpFP--5"><mxGeometry x="272" y="217" width="100" height="20" as="geometry"/></mxCell><mxCell id="eLZBrCOynpte3w48sHIp-25" value="" style="group;sketch=0;shadow=1;" vertex="1" connectable="0" parent="NRxcUDmw_bzb4nclpFP--5"><mxGeometry x="517" y="237" width="173" height="60" as="geometry"/></mxCell><mxCell id="eLZBrCOynpte3w48sHIp-26" value="&lt;font style=&quot;font-size: 24px&quot;&gt;Selection Menu&lt;/font&gt;" style="rounded=0;whiteSpace=wrap;html=1;fillColor=#f5f5f5;strokeColor=#666666;fontColor=#333333;sketch=0;shadow=1;" vertex="1" parent="eLZBrCOynpte3w48sHIp-25"><mxGeometry width="173" height="60" as="geometry"/></mxCell><mxCell id="eLZBrCOynpte3w48sHIp-27" value="" style="endArrow=none;html=1;entryX=1;entryY=1;entryDx=0;entryDy=0;exitX=0;exitY=0;exitDx=0;exitDy=0;strokeColor=#030303;sketch=0;shadow=1;" edge="1" parent="eLZBrCOynpte3w48sHIp-25" source="eLZBrCOynpte3w48sHIp-26" target="eLZBrCOynpte3w48sHIp-26"><mxGeometry width="50" height="50" relative="1" as="geometry"><mxPoint x="24.71428571428571" y="-19.999999999999996" as="sourcePoint"/><mxPoint x="65.9047619047619" y="-44.99999999999999" as="targetPoint"/></mxGeometry></mxCell><mxCell id="eLZBrCOynpte3w48sHIp-28" value="" style="endArrow=none;html=1;entryX=0;entryY=1;entryDx=0;entryDy=0;exitX=1;exitY=0;exitDx=0;exitDy=0;strokeColor=#030303;sketch=0;shadow=1;" edge="1" parent="eLZBrCOynpte3w48sHIp-25" source="eLZBrCOynpte3w48sHIp-26" target="eLZBrCOynpte3w48sHIp-26"><mxGeometry width="50" height="50" relative="1" as="geometry"><mxPoint x="8.238095238095237" y="4.999999999999999" as="sourcePoint"/><mxPoint x="181.23809523809524" y="64.99999999999999" as="targetPoint"/></mxGeometry></mxCell><mxCell id="eLZBrCOynpte3w48sHIp-29" value="Field Name" style="text;html=1;align=center;verticalAlign=middle;resizable=0;points=[];autosize=1;fontColor=#050505;fontSize=16;sketch=0;shadow=1;" vertex="1" parent="NRxcUDmw_bzb4nclpFP--5"><mxGeometry x="517" y="217" width="100" height="20" as="geometry"/></mxCell><mxCell id="eLZBrCOynpte3w48sHIp-30" value="" style="group;sketch=0;shadow=1;" vertex="1" connectable="0" parent="NRxcUDmw_bzb4nclpFP--5"><mxGeometry x="27" y="357" width="173" height="60" as="geometry"/></mxCell><mxCell id="eLZBrCOynpte3w48sHIp-31" value="&lt;font style=&quot;font-size: 24px&quot;&gt;Selection Menu&lt;/font&gt;" style="rounded=0;whiteSpace=wrap;html=1;fillColor=#f5f5f5;strokeColor=#666666;fontColor=#333333;sketch=0;shadow=1;" vertex="1" parent="eLZBrCOynpte3w48sHIp-30"><mxGeometry width="173" height="60" as="geometry"/></mxCell><mxCell id="eLZBrCOynpte3w48sHIp-32" value="" style="endArrow=none;html=1;entryX=1;entryY=1;entryDx=0;entryDy=0;exitX=0;exitY=0;exitDx=0;exitDy=0;strokeColor=#030303;sketch=0;shadow=1;" edge="1" parent="eLZBrCOynpte3w48sHIp-30" source="eLZBrCOynpte3w48sHIp-31" target="eLZBrCOynpte3w48sHIp-31"><mxGeometry width="50" height="50" relative="1" as="geometry"><mxPoint x="24.71428571428571" y="-19.999999999999996" as="sourcePoint"/><mxPoint x="65.9047619047619" y="-44.99999999999999" as="targetPoint"/></mxGeometry></mxCell><mxCell id="eLZBrCOynpte3w48sHIp-33" value="" style="endArrow=none;html=1;entryX=0;entryY=1;entryDx=0;entryDy=0;exitX=1;exitY=0;exitDx=0;exitDy=0;strokeColor=#030303;sketch=0;shadow=1;" edge="1" parent="eLZBrCOynpte3w48sHIp-30" source="eLZBrCOynpte3w48sHIp-31" target="eLZBrCOynpte3w48sHIp-31"><mxGeometry width="50" height="50" relative="1" as="geometry"><mxPoint x="8.238095238095237" y="4.999999999999999" as="sourcePoint"/><mxPoint x="181.23809523809524" y="64.99999999999999" as="targetPoint"/></mxGeometry></mxCell><mxCell id="eLZBrCOynpte3w48sHIp-34" value="Field Name" style="text;html=1;align=center;verticalAlign=middle;resizable=0;points=[];autosize=1;fontColor=#050505;fontSize=16;sketch=0;shadow=1;" vertex="1" parent="NRxcUDmw_bzb4nclpFP--5"><mxGeometry x="27" y="337" width="100" height="20" as="geometry"/></mxCell><mxCell id="eLZBrCOynpte3w48sHIp-35" value="" style="group;sketch=0;shadow=1;" vertex="1" connectable="0" parent="NRxcUDmw_bzb4nclpFP--5"><mxGeometry x="273.5" y="357" width="173" height="60" as="geometry"/></mxCell><mxCell id="eLZBrCOynpte3w48sHIp-36" value="&lt;font style=&quot;font-size: 24px&quot;&gt;Selection Menu&lt;/font&gt;" style="rounded=0;whiteSpace=wrap;html=1;fillColor=#f5f5f5;strokeColor=#666666;fontColor=#333333;sketch=0;shadow=1;" vertex="1" parent="eLZBrCOynpte3w48sHIp-35"><mxGeometry width="173" height="60" as="geometry"/></mxCell><mxCell id="eLZBrCOynpte3w48sHIp-37" value="" style="endArrow=none;html=1;entryX=1;entryY=1;entryDx=0;entryDy=0;exitX=0;exitY=0;exitDx=0;exitDy=0;strokeColor=#030303;sketch=0;shadow=1;" edge="1" parent="eLZBrCOynpte3w48sHIp-35" source="eLZBrCOynpte3w48sHIp-36" target="eLZBrCOynpte3w48sHIp-36"><mxGeometry width="50" height="50" relative="1" as="geometry"><mxPoint x="24.71428571428571" y="-19.999999999999996" as="sourcePoint"/><mxPoint x="65.9047619047619" y="-44.99999999999999" as="targetPoint"/></mxGeometry></mxCell><mxCell id="eLZBrCOynpte3w48sHIp-38" value="" style="endArrow=none;html=1;entryX=0;entryY=1;entryDx=0;entryDy=0;exitX=1;exitY=0;exitDx=0;exitDy=0;strokeColor=#030303;sketch=0;shadow=1;" edge="1" parent="eLZBrCOynpte3w48sHIp-35" source="eLZBrCOynpte3w48sHIp-36" target="eLZBrCOynpte3w48sHIp-36"><mxGeometry width="50" height="50" relative="1" as="geometry"><mxPoint x="8.238095238095237" y="4.999999999999999" as="sourcePoint"/><mxPoint x="181.23809523809524" y="64.99999999999999" as="targetPoint"/></mxGeometry></mxCell><mxCell id="eLZBrCOynpte3w48sHIp-39" value="Field Name" style="text;html=1;align=center;verticalAlign=middle;resizable=0;points=[];autosize=1;fontColor=#050505;fontSize=16;sketch=0;shadow=1;" vertex="1" parent="NRxcUDmw_bzb4nclpFP--5"><mxGeometry x="273.5" y="337" width="100" height="20" as="geometry"/></mxCell><mxCell id="eLZBrCOynpte3w48sHIp-40" value="" style="group;sketch=0;shadow=1;" vertex="1" connectable="0" parent="NRxcUDmw_bzb4nclpFP--5"><mxGeometry x="517" y="357" width="173" height="60" as="geometry"/></mxCell><mxCell id="eLZBrCOynpte3w48sHIp-41" value="&lt;font style=&quot;font-size: 24px&quot;&gt;Selection Menu&lt;/font&gt;" style="rounded=0;whiteSpace=wrap;html=1;fillColor=#f5f5f5;strokeColor=#666666;fontColor=#333333;sketch=0;shadow=1;" vertex="1" parent="eLZBrCOynpte3w48sHIp-40"><mxGeometry width="173" height="60" as="geometry"/></mxCell><mxCell id="eLZBrCOynpte3w48sHIp-42" value="" style="endArrow=none;html=1;entryX=1;entryY=1;entryDx=0;entryDy=0;exitX=0;exitY=0;exitDx=0;exitDy=0;strokeColor=#030303;sketch=0;shadow=1;" edge="1" parent="eLZBrCOynpte3w48sHIp-40" source="eLZBrCOynpte3w48sHIp-41" target="eLZBrCOynpte3w48sHIp-41"><mxGeometry width="50" height="50" relative="1" as="geometry"><mxPoint x="24.71428571428571" y="-19.999999999999996" as="sourcePoint"/><mxPoint x="65.9047619047619" y="-44.99999999999999" as="targetPoint"/></mxGeometry></mxCell><mxCell id="eLZBrCOynpte3w48sHIp-43" value="" style="endArrow=none;html=1;entryX=0;entryY=1;entryDx=0;entryDy=0;exitX=1;exitY=0;exitDx=0;exitDy=0;strokeColor=#030303;sketch=0;shadow=1;" edge="1" parent="eLZBrCOynpte3w48sHIp-40" source="eLZBrCOynpte3w48sHIp-41" target="eLZBrCOynpte3w48sHIp-41"><mxGeometry width="50" height="50" relative="1" as="geometry"><mxPoint x="8.238095238095237" y="4.999999999999999" as="sourcePoint"/><mxPoint x="181.23809523809524" y="64.99999999999999" as="targetPoint"/></mxGeometry></mxCell><mxCell id="eLZBrCOynpte3w48sHIp-44" value="Field Name" style="text;html=1;align=center;verticalAlign=middle;resizable=0;points=[];autosize=1;fontColor=#050505;fontSize=16;sketch=0;shadow=1;" vertex="1" parent="NRxcUDmw_bzb4nclpFP--5"><mxGeometry x="517" y="337" width="100" height="20" as="geometry"/></mxCell><mxCell id="NRxcUDmw_bzb4nclpFP--9" value="" style="group;sketch=0;shadow=1;" vertex="1" connectable="0" parent="NRxcUDmw_bzb4nclpFP--2"><mxGeometry x="212" y="47" width="360" height="70" as="geometry"/></mxCell><mxCell id="NRxcUDmw_bzb4nclpFP--10" value="&lt;font style=&quot;font-size: 24px&quot;&gt;&lt;b&gt;Title&lt;/b&gt;&lt;/font&gt;" style="rounded=0;whiteSpace=wrap;html=1;fillColor=#f5f5f5;strokeColor=#666666;fontColor=#333333;sketch=0;shadow=1;" vertex="1" parent="NRxcUDmw_bzb4nclpFP--9"><mxGeometry width="360" height="70" as="geometry"/></mxCell><mxCell id="NRxcUDmw_bzb4nclpFP--11" value="" style="endArrow=none;html=1;entryX=1;entryY=1;entryDx=0;entryDy=0;exitX=0;exitY=0;exitDx=0;exitDy=0;strokeColor=#030303;sketch=0;shadow=1;" edge="1" parent="NRxcUDmw_bzb4nclpFP--9" source="NRxcUDmw_bzb4nclpFP--10" target="NRxcUDmw_bzb4nclpFP--10"><mxGeometry width="50" height="50" relative="1" as="geometry"><mxPoint x="51.42857142857143" y="-23.333333333333332" as="sourcePoint"/><mxPoint x="137.14285714285717" y="-52.5" as="targetPoint"/></mxGeometry></mxCell><mxCell id="NRxcUDmw_bzb4nclpFP--12" value="" style="endArrow=none;html=1;entryX=0;entryY=1;entryDx=0;entryDy=0;exitX=1;exitY=0;exitDx=0;exitDy=0;strokeColor=#030303;sketch=0;shadow=1;" edge="1" parent="NRxcUDmw_bzb4nclpFP--9" source="NRxcUDmw_bzb4nclpFP--10" target="NRxcUDmw_bzb4nclpFP--10"><mxGeometry width="50" height="50" relative="1" as="geometry"><mxPoint x="17.142857142857146" y="5.833333333333333" as="sourcePoint"/><mxPoint x="377.14285714285717" y="75.83333333333333" as="targetPoint"/></mxGeometry></mxCell><mxCell id="NRxcUDmw_bzb4nclpFP--14" value="" style="group;sketch=0;shadow=1;" vertex="1" connectable="0" parent="NRxcUDmw_bzb4nclpFP--2"><mxGeometry x="587" y="63.5" width="150" height="37" as="geometry"/></mxCell><mxCell id="NRxcUDmw_bzb4nclpFP--15" value="&lt;font style=&quot;font-size: 24px&quot;&gt;Save Button&lt;/font&gt;" style="rounded=0;whiteSpace=wrap;html=1;fillColor=#f5f5f5;strokeColor=#666666;fontColor=#333333;sketch=0;shadow=1;" vertex="1" parent="NRxcUDmw_bzb4nclpFP--14"><mxGeometry width="150" height="37" as="geometry"/></mxCell><mxCell id="NRxcUDmw_bzb4nclpFP--16" value="" style="endArrow=none;html=1;entryX=1;entryY=1;entryDx=0;entryDy=0;exitX=0;exitY=0;exitDx=0;exitDy=0;strokeColor=#030303;sketch=0;shadow=1;" edge="1" parent="NRxcUDmw_bzb4nclpFP--14" source="NRxcUDmw_bzb4nclpFP--15" target="NRxcUDmw_bzb4nclpFP--15"><mxGeometry width="50" height="50" relative="1" as="geometry"><mxPoint x="21.428571428571427" y="-12.333333333333332" as="sourcePoint"/><mxPoint x="57.14285714285714" y="-27.75" as="targetPoint"/></mxGeometry></mxCell><mxCell id="NRxcUDmw_bzb4nclpFP--17" value="" style="endArrow=none;html=1;entryX=0;entryY=1;entryDx=0;entryDy=0;exitX=1;exitY=0;exitDx=0;exitDy=0;strokeColor=#030303;sketch=0;shadow=1;" edge="1" parent="NRxcUDmw_bzb4nclpFP--14" source="NRxcUDmw_bzb4nclpFP--15" target="NRxcUDmw_bzb4nclpFP--15"><mxGeometry width="50" height="50" relative="1" as="geometry"><mxPoint x="7.142857142857142" y="3.083333333333333" as="sourcePoint"/><mxPoint x="157.14285714285714" y="40.08333333333333" as="targetPoint"/></mxGeometry></mxCell></root></mxGraphModel></diagram></mxfile>